# xmcd CD database file
#
# Track frame offsets:
#	150
#	16070
#	33662
#	47775
#	62202
#	78037
#	95362
#	109872
#	123317
#	138267
#	152127
#	163772
#	176847
#	184915
#
# Disc length: 2685 seconds
#
# Revision: 1
# Processed by: cddbd v1.5.2PL0 Copyright (c) Steve Scherf et al.
# Submitted via: CDex 1.70beta2
#
DISCID=b60a7b0e
DTITLE=Phil Manning - Can't Stop
DYEAR=1900
DGENRE=
TTITLE0=Blues Burnin'
TTITLE1=Let Me Love You
TTITLE2=Love To Love You Now
TTITLE3=Can't Stop
TTITLE4=T-Bone Shuffle
TTITLE5=Tiger
TTITLE6=Comin' On Strong
TTITLE7=No 1
TTITLE8=First Time I Met The Blues
TTITLE9=Shuffle-Up
TTITLE10=That's Alright, Mama
TTITLE11=Roll With Me
TTITLE12=Country Pie
TTITLE13=Sweet Home Chicago
EXTD=
EXTT0=
EXTT1=
EXTT2=
EXTT3=
EXTT4=
EXTT5=
EXTT6=
EXTT7=
EXTT8=
EXTT9=
EXTT10=
EXTT11=
EXTT12=
EXTT13=
PLAYORDER=
